<svg width="700" height="775" viewBox="0 0 1024 1134" xmlns="http://www.w3.org/2000/svg">
  <defs>
    <linearGradient id="grad_sironic_new" x1="0" y1="0" x2="1" y2="1">
      <stop offset="0" stop-color="#ff5252"/>
      <stop offset="1" stop-color="#8f0f0f"/>
    </linearGradient>
  </defs>
  <g><g transform="translate(0.000000,1024.000000) scale(0.100000,-0.100000)" fill="url(#grad_sironic_new)" stroke="none">
<path d="M3829 9151 l-29 -29 0 -335 c0 -288 -2 -336 -15 -341 -17 -6 -43 27
-190 244 -54 80 -107 155 -118 168 l-20 22 -705 0 -704 0 -480 -472 c-264
-260 -484 -483 -489 -496 -5 -13 -9 -357 -9 -765 0 -689 1 -744 18 -769 9 -15
100 -105 202 -199 374 -348 370 -344 370 -377 l0 -31 -146 -3 c-146 -3 -146
-3 -170 -31 -26 -30 -32 -83 -14 -118 21 -39 62 -49 200 -49 l130 0 0 -175 0
-175 -186 0 -186 0 -29 -29 c-32 -32 -38 -71 -17 -116 22 -48 51 -55 243 -55
l175 0 0 -179 0 -180 -146 -3 c-146 -3 -146 -3 -170 -31 -39 -46 -27 -123 23
-146 13 -6 80 -11 153 -11 l130 0 0 -24 c0 -19 -47 -68 -205 -216 -112 -105
-243 -228 -290 -273 l-85 -82 0 -579 0 -578 83 -85 c213 -219 1091 -1069 1115
-1080 39 -17 1165 -17 1204 0 26 11 81 75 327 379 l102 128 137 0 136 0 201
-117 c110 -64 315 -185 457 -270 162 -97 266 -153 283 -153 16 0 77 29 144 69
64 38 186 109 271 158 201 116 445 260 490 288 39 25 92 81 250 263 83 96 110
121 131 122 38 0 79 42 79 80 0 43 -39 80 -85 80 -41 0 -73 -27 -82 -70 l-5
-30 -376 0 -375 0 -191 -198 c-104 -108 -223 -230 -263 -271 l-73 -74 -192 6
c-189 5 -194 6 -243 34 l-50 28 210 5 c165 4 214 8 230 20 11 8 64 61 118 116
77 80 95 104 84 112 -10 9 -37 -13 -122 -98 l-110 -110 -244 0 -245 0 -145 83
-146 82 -214 0 -213 0 -34 -40 c-19 -22 -74 -87 -121 -145 -48 -58 -116 -138
-151 -178 l-64 -72 -516 0 -516 0 -43 42 c-24 23 -43 47 -43 53 -1 5 78 87
175 180 l175 170 0 83 c0 90 -11 122 -54 159 -22 20 -26 31 -26 78 0 30 3 55
6 55 3 0 36 -18 73 -40 37 -22 76 -40 87 -40 24 0 64 39 64 61 0 9 61 75 135
149 75 73 142 142 150 154 12 17 15 75 15 334 l0 313 30 26 c58 48 25 143 -50
143 -74 0 -106 -88 -50 -140 l30 -28 0 -314 0 -313 -135 -135 -135 -135 -28
16 c-71 41 -671 414 -782 485 l-125 81 -3 341 -2 341 127 133 c70 73 131 135
135 136 5 2 29 29 53 59 l45 55 0 846 c0 819 -1 848 -19 877 -11 17 -92 106
-180 200 l-161 170 0 336 0 337 248 153 c244 151 503 309 614 376 31 19 63 42
70 50 10 13 12 65 9 230 l-3 213 31 0 31 0 0 -325 0 -325 -24 -38 c-24 -39
-92 -83 -541 -357 -88 -53 -170 -108 -182 -122 -23 -24 -23 -28 -23 -288 l0
-264 26 -20 c36 -29 52 -26 83 11 14 18 90 97 169 175 130 129 146 142 171
137 30 -6 68 9 88 35 21 28 15 68 -17 104 -29 34 -30 37 -30 146 l0 111 68 43
c37 24 108 67 157 96 50 30 93 58 97 65 13 20 8 69 -8 87 -14 16 -15 25 -5 63
7 29 11 158 11 355 l0 311 43 0 c42 -1 67 -17 121 -78 19 -21 18 -22 -18 -62
l-36 -40 0 -327 0 -327 -120 -121 -120 -122 0 -219 0 -218 -190 -191 -190
-191 0 -849 0 -849 255 -256 255 -255 0 -468 c0 -385 -2 -467 -13 -467 -8 0
-33 14 -55 30 l-42 30 0 140 c0 87 4 140 10 140 23 0 50 41 50 76 0 27 -7 42
-30 62 l-30 26 0 190 0 190 -167 168 c-156 157 -195 189 -211 174 -3 -4 71
-84 166 -179 l172 -172 0 -184 0 -183 -30 -28 c-42 -39 -42 -88 0 -124 l31
-25 -3 -125 -3 -124 -55 32 -55 32 -3 342 -2 342 -125 126 c-89 89 -130 124
-141 120 -18 -7 1 -31 143 -176 l83 -85 0 -318 0 -318 -42 23 -43 23 -3 78
c-3 76 -2 79 28 107 42 40 42 89 -1 123 -31 24 -32 27 -38 130 l-6 105 -99
102 c-64 66 -103 99 -113 96 -17 -7 27 -63 126 -161 l61 -59 0 -91 c0 -88 -1
-92 -30 -120 -22 -21 -30 -38 -30 -63 0 -25 8 -41 30 -62 26 -24 30 -35 30
-82 0 -30 -3 -57 -6 -61 -3 -3 -24 6 -45 20 l-39 26 0 184 0 184 -64 68 c-35
37 -75 86 -89 109 -15 22 -35 43 -46 47 -24 7 -57 -8 -71 -35 -6 -11 -10 -119
-10 -273 0 -228 2 -257 18 -276 18 -21 667 -417 713 -434 37 -14 54 -5 89 50
l30 48 0 479 0 480 -255 256 -255 256 0 841 0 840 190 187 190 187 0 221 0
221 120 122 120 122 0 322 c0 345 1 355 52 382 16 9 28 3 71 -38 98 -93 70
-87 416 -88 l306 0 145 88 145 87 286 0 287 0 248 258 c136 141 254 258 263
260 9 1 52 -19 96 -45 l80 -48 -86 -5 -86 -5 -99 -105 c-54 -58 -166 -174
-248 -257 l-150 -153 -164 0 -164 0 -28 30 c-53 57 -140 24 -140 -53 0 -75 94
-106 143 -47 l26 30 172 0 172 0 51 53 c145 148 422 441 429 453 6 11 35 14
126 14 114 0 119 -1 177 -32 l59 -33 -137 -5 -138 -5 -97 -97 c-77 -78 -95
-100 -85 -110 10 -10 31 7 105 80 l92 92 167 0 166 0 114 -67 c122 -72 168
-84 194 -48 19 26 17 79 -3 97 -10 8 -45 30 -78 48 -123 68 -641 374 -657 388
-16 14 -18 38 -18 234 l0 220 -29 29 c-39 38 -88 40 -122 3 -24 -25 -24 -28
-27 -247 -3 -193 -5 -222 -20 -234 -9 -7 -244 -150 -522 -317 -278 -167 -539
-325 -580 -350 l-74 -46 -280 0 -279 0 -126 123 c-69 68 -137 131 -151 140
-20 14 -52 17 -182 17 l-157 0 -36 -31 c-53 -47 -71 -37 -212 109 l-122 127
-2 65 c-1 36 -3 79 -3 95 l-1 30 530 -3 c291 -1 532 -6 536 -10 3 -4 70 -91
147 -193 78 -103 149 -189 158 -193 42 -16 91 -5 169 40 44 25 179 100 300
166 290 158 571 315 618 345 21 13 43 35 49 48 15 34 -5 80 -44 96 -26 10 -37
9 -91 -13 l-62 -26 -5 120 c-5 116 -6 121 -33 144 -36 31 -78 31 -114 0 l-28
-24 -3 -175 -3 -174 -157 -88 c-227 -128 -259 -145 -265 -145 -3 0 -7 131 -9
291 l-3 291 -28 24 c-39 33 -81 31 -118 -5z m-1579 -617 l5 -101 136 -142
c126 -131 138 -141 173 -141 29 0 39 -5 48 -26 12 -26 55 -54 83 -54 14 0 15
-20 13 -162 -3 -162 -3 -163 -26 -166 -13 -2 -49 -19 -80 -38 -32 -19 -63 -34
-69 -34 -10 0 -13 29 -13 111 l0 111 -115 117 -115 118 0 63 0 63 -125 127
c-69 69 -125 131 -125 137 0 6 28 36 61 67 56 53 65 57 103 54 l41 -3 5 -101z
m2898 16 c21 -13 30 -25 26 -33 -4 -6 -114 -121 -243 -254 l-235 -243 -238 0
c-131 0 -238 3 -238 8 0 4 25 22 56 40 l56 32 156 0 c180 0 158 -8 270 112 71
76 72 77 72 132 0 55 1 56 43 83 87 55 232 143 237 143 3 0 20 -9 38 -20z
m-3015 -188 l117 -119 0 -63 0 -63 120 -122 120 -122 0 -116 c0 -97 -3 -118
-17 -133 -17 -17 -18 -12 -23 104 l-5 122 -114 114 -114 115 -9 68 -8 67 -117
118 c-100 101 -115 119 -104 132 8 9 19 16 25 16 7 0 65 -53 129 -118z m37
-227 l0 -58 120 -122 120 -121 0 -127 0 -126 -30 -16 c-16 -8 -31 -15 -35 -15
-3 0 -5 41 -5 90 l0 90 -105 104 -105 105 0 103 c0 122 2 118 -128 248 -88 90
-91 94 -75 112 17 19 21 16 130 -95 l113 -114 0 -58z m2620 198 c0 -33 -9 -46
-77 -115 l-78 -78 -115 0 c-105 1 -113 2 -95 16 41 32 344 212 358 213 4 1 7
-16 7 -36z m-2700 -285 l0 -98 -46 0 c-42 0 -51 5 -100 53 -48 47 -54 56 -54
95 0 51 -26 82 -70 82 -68 0 -96 -88 -43 -130 18 -14 36 -20 53 -16 20 4 36
-6 87 -56 61 -61 62 -61 133 -67 l73 -7 88 -91 88 -90 3 -92 c2 -51 1 -99 -2
-107 -3 -8 -35 -32 -70 -53 l-65 -39 -5 78 -5 79 -118 120 -118 121 -88 0 -87
0 -99 101 -99 101 169 165 169 165 103 -108 102 -109 1 -97z m-245 57 c0 -23
-5 -31 -21 -33 -30 -4 -48 21 -34 48 18 33 55 23 55 -15z m-220 -205 l100
-100 61 0 c110 0 117 -4 230 -119 l104 -106 0 -87 c0 -76 -2 -89 -19 -98 -11
-5 -22 -10 -24 -10 -3 0 -5 35 -6 78 l-1 77 -99 98 -100 97 -113 0 c-62 0
-117 4 -123 8 -5 4 -50 49 -98 98 l-89 91 32 37 c18 20 35 36 39 36 3 0 51
-45 106 -100z m-99 -105 l99 -105 121 0 120 0 87 -89 87 -88 0 -81 c0 -80 -1
-82 -30 -97 -16 -8 -31 -15 -35 -15 -3 0 -5 31 -5 69 l0 68 -82 87 -83 86 -95
0 -95 0 -114 114 c-103 103 -112 115 -102 135 7 11 15 21 20 21 5 0 53 -47
107 -105z m2808 92 c21 -16 18 -45 -6 -61 -35 -22 -74 27 -48 59 15 18 31 19
54 2z m-2850 -174 l113 -117 94 -3 94 -4 73 -72 72 -71 0 -81 0 -81 -63 -37
c-35 -20 -67 -37 -70 -37 -4 0 -7 54 -7 120 0 119 0 119 -31 155 -30 34 -34
35 -98 35 l-68 0 -129 130 c-71 72 -131 135 -132 141 -5 12 17 39 30 39 5 0
60 -53 122 -117z m162 -232 c104 -9 104 -8 104 -170 l0 -136 -36 -23 c-19 -12
-39 -34 -44 -48 -11 -29 -13 -769 -2 -796 4 -9 87 -100 185 -203 l177 -186 0
-779 0 -780 -42 -48 c-24 -26 -98 -104 -165 -174 -68 -70 -132 -142 -143 -160
-19 -32 -20 -50 -20 -424 0 -382 1 -392 21 -418 11 -14 34 -33 50 -41 l29 -16
0 -106 c0 -137 -5 -143 -107 -143 l-74 0 -74 -75 c-40 -41 -77 -75 -82 -75 -6
0 -37 28 -71 63 l-60 64 -1 483 c-1 401 2 488 13 505 8 12 117 118 243 235
125 117 236 222 246 232 16 19 17 75 17 873 l0 853 -157 149 c-87 81 -203 192
-260 247 l-102 99 4 596 c3 328 5 616 5 641 l1 45 137 -139 137 -140 71 -5z
m844 -559 c0 -96 -1 -98 -30 -124 -25 -22 -30 -34 -30 -69 0 -42 -4 -47 -122
-166 -68 -68 -126 -123 -130 -123 -5 0 -8 87 -8 194 l0 194 103 60 c56 34 125
77 152 96 28 19 53 34 58 35 4 1 7 -43 7 -97z m44 -158 c9 -8 16 -20 16 -26 0
-13 -30 -48 -41 -48 -13 0 -39 30 -39 45 0 15 27 45 40 45 5 0 16 -7 24 -16z
m-300 -3008 l46 -54 -2 -166 -3 -166 -50 33 -50 32 -3 188 c-1 112 1 187 7
187 5 0 30 -24 55 -54z m830 -109 c36 -26 -4 -84 -41 -61 -24 15 -27 38 -8 58
20 19 26 20 49 3z m-604 -122 c14 -17 5 -51 -16 -59 -35 -13 -73 41 -47 67 12
12 50 7 63 -8z m298 -71 c2 -11 -4 -27 -13 -34 -32 -26 -87 25 -58 54 4 4 21
6 38 4 22 -2 31 -9 33 -24z m-840 -476 c40 -27 42 -32 42 -76 -1 -45 -4 -49
-64 -103 l-64 -56 -95 5 -96 5 -74 -72 c-73 -70 -74 -71 -92 -51 -17 19 -16
21 46 89 l64 69 74 1 c69 1 75 3 107 35 34 34 34 34 34 131 l0 97 38 -23 c20
-12 56 -36 80 -51z m120 -70 c8 -8 12 -50 12 -124 l0 -111 -55 -52 -54 -52
-78 7 -79 7 -54 -66 c-30 -36 -59 -66 -63 -66 -13 -1 -77 50 -77 62 0 5 26 34
58 63 l57 54 100 0 99 0 48 47 48 47 0 98 c0 100 7 117 38 86z m102 -184 l0
-122 -155 -148 c-85 -82 -160 -151 -166 -153 -13 -4 -59 38 -59 55 0 7 16 25
36 41 74 59 94 82 94 106 0 21 6 26 38 32 27 4 54 22 100 65 l62 59 0 105 0
106 25 -12 c25 -11 25 -13 25 -134z m103 59 l37 -23 0 -214 0 -214 -31 -26
c-40 -34 -90 -35 -116 -3 -41 52 -93 58 -133 15 -45 -48 -8 -128 59 -128 28 0
44 7 66 30 24 25 37 30 74 30 39 0 51 5 83 37 l38 37 0 203 c0 112 3 203 8
203 4 0 18 -7 30 -16 21 -15 22 -20 22 -212 l0 -197 -137 -137 c-76 -76 -143
-138 -150 -138 -15 0 -243 218 -243 231 0 5 74 82 165 171 l165 163 0 113 c0
88 3 112 13 106 6 -4 29 -18 50 -31z m-283 -13 c0 -19 -11 -42 -31 -65 l-31
-35 -105 0 -104 0 -63 -65 -63 -65 -24 20 -24 20 66 65 67 65 102 0 102 0 50
45 c28 25 52 45 54 45 2 0 4 -13 4 -30z m501 -121 c28 -19 29 -24 29 -98 0
-77 0 -77 40 -116 l40 -39 0 -81 -1 -80 -175 -169 -175 -169 -45 44 c-24 24
-44 48 -44 55 0 6 65 74 145 151 l145 140 0 192 c0 105 3 191 6 191 3 0 19 -9
35 -21z m-608 -131 c8 -12 7 -21 -2 -32 -19 -23 -58 -20 -66 4 -14 43 44 67
68 28z m4578 1 c9 -18 7 -25 -10 -43 -17 -16 -25 -18 -39 -10 -19 12 -27 37
-18 60 8 22 54 17 67 -7z m-4669 -66 c18 -16 18 -17 -4 -40 -25 -27 -41 -29
-58 -8 -11 13 -9 20 10 40 28 30 28 30 52 8z m4509 -13 c53 0 61 -10 32 -42
-15 -17 -39 -18 -343 -18 l-327 0 -193 -202 c-107 -112 -226 -236 -266 -275
l-73 -73 -130 0 c-128 0 -130 0 -180 31 -28 18 -51 36 -51 40 0 5 71 9 157 9
l158 0 258 265 259 265 311 2 c172 2 318 2 325 1 8 -2 36 -3 63 -3z m-31 -108
c0 -10 -83 -102 -92 -102 -3 0 -8 9 -11 20 -5 19 -14 20 -219 20 l-214 0 -141
-147 c-77 -82 -145 -152 -149 -156 -5 -5 -11 -38 -14 -75 l-5 -66 -130 -78
c-71 -43 -137 -78 -145 -78 -8 0 -57 25 -109 57 -110 65 -108 71 30 72 l86 1
63 68 c35 37 153 158 261 270 l198 202 295 0 c163 0 296 -4 296 -8z m-4145
-62 c0 -13 -8 -28 -17 -34 -37 -23 -78 35 -43 60 24 18 60 2 60 -26z m3947
-60 c-41 -34 -578 -350 -595 -350 -4 0 -7 19 -7 43 0 41 5 47 138 185 l137
143 175 -1 c173 -1 175 -1 152 -20z M5680 9160 c-24 -18 -25 -24 -28 -144 -2
-71 -8 -126 -13 -126 -5 0 -32 11 -59 25 -62 31 -84 31 -115 0 -45 -44 -28
-95 47 -137 394 -224 594 -335 688 -386 63 -33 156 -84 205 -111 97 -55 151
-65 192 -36 12 8 85 100 162 203 l140 188 178 -3 c98 -1 334 -2 526 -3 l347 0
0 -91 0 -92 -122 -126 c-68 -69 -127 -129 -133 -133 -5 -4 -81 -8 -167 -8
-148 0 -158 1 -168 20 -16 29 -54 42 -87 29 -16 -5 -89 -70 -163 -144 l-135
-135 -978 -2 -979 -3 -19 -24 c-24 -30 -24 -72 0 -102 l19 -24 1002 -2 c908
-3 1005 -1 1034 13 17 9 99 88 181 174 l150 158 156 1 c108 1 160 5 170 14 8
6 73 72 145 145 l129 134 5 101 5 102 45 -3 c40 -3 52 -10 105 -63 l60 -59
-117 -117 c-63 -65 -121 -128 -127 -140 -6 -12 -11 -46 -11 -75 l-1 -53 -114
-118 -115 -118 -1 -87 c-1 -48 -4 -100 -8 -116 l-6 -29 -68 47 c-37 25 -78 46
-90 46 -28 0 -67 -38 -67 -66 0 -12 -56 -75 -140 -159 l-140 -140 0 -365 0
-366 -30 -22 c-74 -55 0 -184 82 -141 57 31 66 94 18 139 l-30 28 0 359 1 358
127 128 128 127 39 -29 c22 -15 207 -131 410 -256 204 -125 396 -245 428 -267
l57 -39 0 -333 0 -333 -180 -187 -180 -186 0 -860 0 -861 47 -52 c26 -29 96
-101 154 -162 59 -60 119 -124 133 -141 l26 -32 0 -336 0 -336 -98 -63 c-54
-35 -170 -108 -258 -162 -361 -221 -550 -340 -571 -359 -23 -19 -23 -23 -23
-253 0 -128 -3 -233 -7 -233 -4 0 -17 9 -29 21 -17 16 -21 28 -17 53 4 25 -1
39 -21 63 l-25 30 -2 246 -2 246 26 34 c39 52 52 61 426 286 217 131 348 216
357 231 10 19 13 84 14 278 l0 253 -25 24 c-13 14 -32 25 -43 25 -10 0 -92
-73 -189 -169 -138 -137 -175 -169 -192 -164 -35 9 -70 -6 -86 -37 -23 -44
-18 -67 20 -107 l36 -37 -5 -105 c-3 -57 -10 -109 -15 -114 -5 -5 -71 -46
-147 -91 -76 -46 -147 -94 -157 -108 -18 -24 -18 -27 -2 -62 l17 -35 -36 -43
-36 -42 0 -252 c0 -214 -2 -253 -15 -264 -21 -17 -47 -2 -104 61 l-44 49 29
37 29 38 3 272 4 273 136 141 137 142 -4 189 -3 190 185 186 c102 103 190 197
196 209 8 15 11 256 11 834 l0 812 -250 245 -250 244 0 499 c0 274 3 499 7
499 3 0 26 -11 50 -25 l43 -26 0 -436 0 -436 186 -181 c103 -100 192 -181 197
-181 32 0 0 38 -163 199 l-180 177 0 415 0 416 38 -23 c90 -55 82 -40 82 -154
l0 -103 -35 -35 c-22 -22 -35 -45 -35 -61 0 -27 39 -76 60 -76 6 0 10 -59 10
-171 l0 -171 131 -126 c72 -70 136 -127 142 -127 32 0 5 34 -108 141 l-125
118 0 164 c0 163 0 164 25 184 36 28 35 86 -2 122 -24 24 -27 36 -31 112 -3
47 -1 89 4 94 6 6 27 -1 52 -16 l42 -25 0 -279 0 -278 116 -116 c108 -108 144
-134 144 -104 0 7 -49 60 -110 118 l-110 106 0 262 0 263 40 -23 40 -23 0
-198 0 -198 78 -83 c42 -46 87 -95 99 -110 27 -33 57 -33 88 -1 l25 24 0 261
0 261 -25 23 c-13 12 -89 62 -167 111 -79 49 -228 142 -331 207 -227 144 -229
145 -261 130 -52 -24 -56 -66 -56 -621 l0 -506 250 -248 250 -248 0 -809 0
-809 -190 -194 -190 -195 0 -193 0 -194 -140 -140 -140 -140 0 -268 c0 -221
-3 -273 -15 -297 -24 -46 -45 -39 -45 14 0 37 -5 48 -31 70 -37 31 -54 32 -97
6 -29 -18 -50 -20 -206 -20 l-174 0 -196 -210 c-108 -116 -196 -217 -196 -226
0 -26 47 -64 79 -64 21 0 35 -8 50 -29 12 -16 21 -32 21 -35 0 -5 -613 -374
-919 -553 -80 -47 -192 -115 -249 -150 -102 -64 -103 -65 -129 -48 -15 10
-105 64 -202 120 -97 56 -270 157 -386 225 -401 236 -388 230 -436 191 -24
-19 -24 -21 -27 -262 -3 -272 0 -293 56 -316 41 -17 95 -3 115 30 7 14 14 81
17 180 l5 157 190 -109 c105 -60 298 -172 430 -250 133 -79 250 -141 264 -141
14 0 116 54 230 122 177 105 318 186 594 345 33 18 61 33 63 33 2 0 4 -68 4
-151 0 -170 9 -201 66 -219 39 -13 74 -1 103 36 20 25 21 37 21 245 l0 217
132 81 c73 45 142 81 153 81 14 0 57 -47 142 -154 101 -127 127 -154 153 -160
42 -8 1123 -8 1174 1 35 5 70 37 305 267 146 144 406 398 576 566 171 167 315
313 322 324 15 25 19 1130 4 1168 -5 13 -125 132 -268 266 -143 133 -270 256
-282 273 -39 53 -28 59 119 59 l132 0 29 29 c40 41 40 91 0 132 l-29 29 -141
0 -141 0 0 179 0 179 184 4 c179 3 185 4 210 27 48 45 40 132 -13 161 -12 6
-96 10 -200 10 l-181 0 0 174 0 175 146 3 c146 3 146 3 170 31 16 19 24 40 24
67 0 27 -8 48 -24 67 -24 28 -24 28 -170 31 l-146 3 0 27 c0 31 45 78 370 382
107 101 200 192 207 204 9 16 12 202 13 775 l0 754 -92 92 c-51 51 -271 268
-489 483 l-396 392 -705 0 -705 0 -20 -22 c-11 -13 -80 -111 -152 -218 -84
-125 -138 -195 -149 -195 -16 0 -17 29 -22 335 -4 245 -8 341 -18 357 -29 51
-89 57 -133 14 l-29 -29 0 -281 c0 -190 -3 -281 -10 -281 -15 0 -51 19 -247
129 l-173 96 0 167 c0 165 0 167 -26 197 -31 37 -84 42 -124 11z m2572 -697
c18 -16 13 -22 -102 -138 l-120 -122 0 -58 0 -58 -120 -122 -120 -122 0 -112
c0 -102 -2 -112 -17 -109 -16 3 -18 17 -18 128 l0 125 117 120 117 120 1 64 0
64 117 119 c64 65 119 118 122 118 2 0 13 -8 23 -17z m65 -68 c4 -11 -29 -51
-101 -125 l-106 -109 0 -107 0 -107 -105 -108 -105 -108 0 -95 0 -95 -35 20
-35 21 0 126 0 126 120 121 120 122 0 59 0 59 107 107 c59 60 114 108 121 108
7 0 15 -7 19 -15z m208 -200 l169 -165 -99 -100 -100 -100 -90 0 -91 0 -117
-118 -117 -119 0 -81 c0 -45 -2 -82 -4 -82 -3 0 -34 19 -70 41 l-66 41 0 104
0 103 97 95 97 96 59 0 59 0 68 65 c47 46 72 64 84 59 73 -28 127 98 57 135
-54 30 -111 -7 -111 -72 0 -34 -7 -45 -55 -93 -51 -49 -60 -54 -100 -54 l-45
0 0 101 0 100 102 105 c55 57 102 104 103 104 0 0 77 -74 170 -165z m-76 -69
c18 -22 -4 -58 -32 -54 -37 5 -36 68 1 68 11 0 25 -6 31 -14z m316 -166 l28
-29 -88 -93 c-48 -51 -94 -97 -103 -102 -8 -5 -60 -8 -114 -7 -54 1 -106 -3
-116 -8 -9 -5 -58 -49 -108 -98 l-92 -89 -4 -71 c-2 -40 -7 -75 -11 -79 -4 -5
-16 1 -26 12 -16 16 -18 30 -13 104 l5 84 101 104 101 103 96 6 95 6 95 93
c52 51 101 93 110 93 8 1 28 -12 44 -29z m78 -82 c8 -12 -13 -39 -103 -132
l-113 -116 -93 0 -92 0 -86 -87 -86 -88 0 -67 c0 -38 -3 -68 -6 -68 -3 0 -19
8 -35 17 -28 17 -29 20 -29 93 l1 75 89 93 89 92 118 0 119 0 99 105 c54 58
103 104 108 102 6 -2 15 -10 20 -19z m67 -63 c10 -12 -9 -36 -116 -147 -71
-73 -133 -136 -139 -140 -5 -4 -39 -8 -74 -8 -60 0 -66 -2 -97 -36 l-34 -35 0
-113 c0 -62 -3 -116 -7 -119 -7 -7 -84 34 -115 61 -14 12 -18 31 -18 91 l0 76
71 73 70 72 91 0 91 0 121 120 c67 66 126 120 132 120 6 0 17 -7 24 -15z m-68
-1435 c-54 -52 -169 -162 -255 -245 l-158 -150 1 -851 0 -851 78 -75 c42 -41
157 -150 255 -242 l177 -168 0 -502 0 -502 -58 -57 c-32 -31 -62 -57 -67 -57
-6 0 -42 34 -80 75 l-70 75 -74 0 c-106 0 -111 6 -111 140 l0 107 37 24 c21
13 43 35 50 49 15 30 19 746 4 798 -10 32 -27 53 -248 290 l-113 121 0 781 0
781 173 180 c94 100 178 192 185 205 10 19 12 111 10 410 l-3 386 -42 37 -43
37 0 132 c0 164 5 172 106 172 l67 0 136 141 136 142 3 -644 2 -644 -98 -95z
m-827 475 l55 -35 0 -190 c0 -142 -3 -190 -12 -190 -7 0 -34 21 -60 47 l-48
47 0 178 c0 98 2 178 5 178 3 0 30 -16 60 -35z m-310 -65 c8 -27 -12 -52 -39
-48 -16 2 -22 11 -24 36 -3 30 -1 32 27 32 21 0 32 -6 36 -20z m-448 -206 c14
-38 -41 -71 -66 -40 -7 8 -10 24 -6 36 8 25 62 28 72 4z m808 -3140 c-3 -14
-44 -46 -117 -91 -171 -106 -186 -114 -192 -105 -2 4 -4 50 -3 101 2 76 5 94
20 102 28 16 49 66 42 102 -6 31 0 38 122 157 l128 125 3 -185 c1 -102 0 -195
-3 -206z m-301 107 c25 -28 5 -63 -32 -59 -30 3 -42 39 -22 64 17 19 34 18 54
-5z m676 -602 c0 -90 0 -91 34 -125 33 -33 37 -34 108 -34 l74 0 69 -70 c68
-68 68 -70 50 -90 -10 -11 -22 -20 -27 -20 -4 0 -37 30 -72 68 l-64 67 -113 2
-112 2 -60 58 c-57 56 -58 59 -54 102 3 24 11 48 18 52 8 5 39 24 69 43 30 19
61 35 68 35 9 1 12 -23 12 -90z m-200 -128 l0 -98 50 -47 49 -46 99 0 98 0 57
-55 c31 -31 57 -59 57 -63 0 -5 -16 -24 -36 -43 l-35 -34 -35 40 c-101 117
-82 105 -175 105 l-83 0 -48 47 -48 47 0 111 c0 110 7 135 37 135 10 0 13 -24
13 -99z m-27 -218 c54 -55 66 -63 99 -63 37 0 38 -1 38 -34 0 -26 7 -41 31
-60 17 -14 34 -26 39 -26 5 0 21 -16 36 -36 l27 -35 -31 -32 -32 -32 -160 160
-160 160 0 121 c0 116 1 121 23 131 22 10 22 10 25 -91 l3 -101 62 -62z m17
-179 l165 -166 -120 -114 c-66 -62 -124 -114 -129 -114 -5 0 -72 62 -148 137
l-138 137 0 197 c0 193 1 198 22 213 12 9 26 16 30 16 5 0 8 -91 8 -202 l0
-202 37 -38 c33 -33 43 -38 84 -38 40 0 52 -5 82 -35 43 -43 69 -44 108 -6 31
32 36 55 18 95 -23 49 -114 52 -140 5 -7 -14 -21 -19 -55 -19 -37 0 -51 6 -75
29 l-29 29 0 206 0 206 53 30 52 30 5 -115 5 -115 165 -166z m262 286 l104 0
62 -63 c62 -63 63 -63 43 -81 -20 -18 -22 -17 -86 43 l-66 61 -101 0 -102 0
-38 37 c-29 29 -38 45 -38 71 l0 34 59 -51 59 -51 104 0z m-672 -229 l0 -190
150 -147 151 -148 -50 -50 -50 -50 -175 168 -176 168 0 82 0 82 40 39 c40 39
40 39 40 116 0 73 2 79 28 98 15 11 30 21 35 21 4 0 7 -85 7 -189z m-149 -30
l-41 -49 0 -90 0 -90 175 -167 c96 -92 175 -172 175 -178 0 -6 -19 -31 -42
-54 l-42 -43 -188 0 -188 0 0 376 c0 355 1 375 18 370 11 -4 47 11 92 38 l75
44 3 -55 c3 -50 0 -57 -37 -102z m-583 87 c32 -32 -8 -80 -48 -58 -21 11 -25
27 -14 54 7 19 45 21 62 4z m1362 -13 c19 -23 3 -57 -27 -53 -34 4 -51 31 -34
52 17 20 45 21 61 1z m-1552 -12 c70 -5 82 -9 82 -24 0 -31 50 -62 92 -56 37
5 41 2 123 -85 50 -53 85 -99 85 -111 0 -31 39 -67 73 -67 20 0 45 -13 78 -41
l49 -41 0 -154 0 -154 -312 0 -313 0 -178 215 c-194 234 -170 214 -286 227
-20 3 -7 21 108 143 121 128 135 141 174 146 62 9 132 10 225 2z m1624 -70
c26 -25 27 -28 11 -45 -16 -18 -17 -18 -44 8 -23 22 -26 29 -16 45 15 24 16
24 49 -8z m-305 -159 c9 -24 -10 -49 -37 -49 -27 0 -46 25 -37 49 4 10 18 16
37 16 19 0 33 -6 37 -16z M5315 7339 c-839 -45 -1324 -196 -1665 -516 -317
-299 -467 -688 -416 -1080 30 -231 101 -385 241 -528 183 -187 393 -304 670
-374 201 -51 294 -62 533 -68 252 -6 295 0 347 53 70 69 74 222 9 311 -37 49
-86 61 -279 68 -365 13 -550 49 -734 143 -199 102 -304 217 -346 379 -19 74
-19 249 0 330 60 257 304 532 570 646 322 137 694 194 1450 220 107 4 134 17
166 85 17 34 23 64 23 121 1 94 -27 159 -82 193 -34 21 -50 23 -182 24 -80 1
-217 -2 -305 -7z M4990 6480 c-96 -4 -193 -13 -215 -20 -171 -52 -329 -216
-381 -395 -35 -120 -17 -280 44 -385 63 -110 196 -214 324 -255 101 -32 198
-44 448 -55 451 -20 610 -61 672 -175 74 -136 25 -364 -97 -457 -173 -132
-887 -291 -1650 -368 -188 -19 -217 -25 -272 -51 -156 -74 -187 -258 -64 -380
72 -73 127 -85 311 -70 763 64 1487 214 1813 377 268 132 420 331 483 627 21
101 18 277 -6 373 -46 183 -161 350 -304 439 -190 118 -385 159 -899 190 -270
16 -322 26 -315 63 8 42 32 43 636 45 641 2 661 0 797 -64 85 -40 196 -143
248 -230 51 -86 95 -204 120 -319 29 -135 29 -396 -1 -526 -69 -303 -237 -534
-531 -731 -340 -226 -852 -345 -1836 -423 -334 -26 -383 -31 -426 -46 -61 -19
-121 -73 -148 -129 -27 -57 -28 -144 -2 -201 25 -55 94 -111 160 -131 61 -17
157 -15 496 13 992 80 1564 217 1991 474 218 132 445 351 579 559 394 611 295
1563 -208 1991 -155 132 -308 204 -517 242 -93 17 -161 20 -590 23 -267 1
-564 -1 -660 -5z M3051 2400 l-136 -140 -92 0 c-108 0 -119 -3 -139 -42 -19
-37 -5 -80 32 -97 32 -14 239 -14 267 0 12 6 79 69 148 140 l125 129 940 0
c1022 0 974 -3 988 55 7 29 -15 79 -39 89 -9 3 -453 6 -987 6 l-971 0 -136
-140z"/>
</g></g>
  <text x="512.0" y="1094" font-family="DejaVu Sans Mono" font-weight="700" font-size="53" letter-spacing="14" text-anchor="middle" fill="#ff5252">SIRONIC</text>
</svg>